<svg width="540" height="380" viewBox="0 0 540 380" fill="none" xmlns="http://www.w3.org/2000/svg">
<rect width="540" height="380" fill="url(#paint0_radial_5_5)"/>
<path d="M172.431 84V62.55H181.341C182.761 62.55 184.001 62.78 185.061 63.24C186.121 63.7 186.941 64.35 187.521 65.19C188.101 66.03 188.391 67.02 188.391 68.16C188.391 69.2 188.101 70.13 187.521 70.95C186.941 71.75 186.121 72.38 185.061 72.84C184.001 73.3 182.761 73.53 181.341 73.53H176.781V72H181.611C183.151 72 184.491 72.24 185.631 72.72C186.791 73.18 187.691 73.85 188.331 74.73C188.991 75.59 189.321 76.62 189.321 77.82C189.321 79.04 189.001 80.12 188.361 81.06C187.721 82 186.821 82.73 185.661 83.25C184.501 83.75 183.151 84 181.611 84H172.431ZM176.481 80.61H181.641C182.741 80.61 183.611 80.35 184.251 79.83C184.891 79.29 185.211 78.54 185.211 77.58C185.211 76.66 184.891 75.95 184.251 75.45C183.611 74.93 182.741 74.67 181.641 74.67H176.181V71.34H181.131C182.111 71.34 182.881 71.1 183.441 70.62C184.021 70.12 184.311 69.44 184.311 68.58C184.311 67.74 184.021 67.09 183.441 66.63C182.881 66.17 182.111 65.94 181.131 65.94H176.481V80.61ZM205.305 79.29L207.405 81.72C206.645 82.58 205.665 83.26 204.465 83.76C203.285 84.24 201.975 84.48 200.535 84.48C198.795 84.48 197.265 84.14 195.945 83.46C194.625 82.78 193.595 81.84 192.855 80.64C192.115 79.44 191.745 78.05 191.745 76.47C191.745 74.89 192.095 73.5 192.795 72.3C193.515 71.08 194.485 70.13 195.705 69.45C196.945 68.77 198.335 68.43 199.875 68.43C201.375 68.43 202.705 68.77 203.865 69.45C205.045 70.11 205.965 71.03 206.625 72.21C207.285 73.39 207.615 74.76 207.615 76.32V76.5H203.745V76.08C203.745 75.16 203.575 74.36 203.235 73.68C202.915 73 202.465 72.47 201.885 72.09C201.325 71.71 200.655 71.52 199.875 71.52C199.055 71.52 198.335 71.72 197.715 72.12C197.095 72.5 196.605 73.06 196.245 73.8C195.905 74.52 195.735 75.38 195.735 76.38C195.735 77.44 195.945 78.35 196.365 79.11C196.805 79.85 197.395 80.42 198.135 80.82C198.895 81.2 199.765 81.39 200.745 81.39C202.545 81.39 204.065 80.69 205.305 79.29ZM207.615 77.67H194.295V75.15H207.135L207.615 76.32V77.67ZM219.79 84H216.01C214.65 84 213.62 83.66 212.92 82.98C212.24 82.28 211.9 81.25 211.9 79.89V64.92H215.86V79.2C215.86 79.74 215.98 80.14 216.22 80.4C216.46 80.64 216.84 80.76 217.36 80.76H219.79V84ZM219.61 72.09H209.26V68.91H219.61V72.09ZM232.006 84H228.226C226.866 84 225.836 83.66 225.136 82.98C224.456 82.28 224.116 81.25 224.116 79.89V64.92H228.076V79.2C228.076 79.74 228.196 80.14 228.436 80.4C228.676 80.64 229.056 80.76 229.576 80.76H232.006V84ZM231.826 72.09H221.476V68.91H231.826V72.09ZM247.375 79.29L249.475 81.72C248.715 82.58 247.735 83.26 246.535 83.76C245.355 84.24 244.045 84.48 242.605 84.48C240.865 84.48 239.335 84.14 238.015 83.46C236.695 82.78 235.665 81.84 234.925 80.64C234.185 79.44 233.815 78.05 233.815 76.47C233.815 74.89 234.165 73.5 234.865 72.3C235.585 71.08 236.555 70.13 237.775 69.45C239.015 68.77 240.405 68.43 241.945 68.43C243.445 68.43 244.775 68.77 245.935 69.45C247.115 70.11 248.035 71.03 248.695 72.21C249.355 73.39 249.685 74.76 249.685 76.32V76.5H245.815V76.08C245.815 75.16 245.645 74.36 245.305 73.68C244.985 73 244.535 72.47 243.955 72.09C243.395 71.71 242.725 71.52 241.945 71.52C241.125 71.52 240.405 71.72 239.785 72.12C239.165 72.5 238.675 73.06 238.315 73.8C237.975 74.52 237.805 75.38 237.805 76.38C237.805 77.44 238.015 78.35 238.435 79.11C238.875 79.85 239.465 80.42 240.205 80.82C240.965 81.2 241.835 81.39 242.815 81.39C244.615 81.39 246.135 80.69 247.375 79.29ZM249.685 77.67H236.365V75.15H249.205L249.685 76.32V77.67ZM262.056 68.64V72.24H261.246C260.306 72.24 259.496 72.43 258.816 72.81C258.136 73.17 257.596 73.74 257.196 74.52C256.816 75.3 256.626 76.31 256.626 77.55V84H252.666V68.91H256.596V73.8H256.116C256.296 72.46 256.666 71.42 257.226 70.68C257.806 69.94 258.476 69.42 259.236 69.12C260.016 68.8 260.776 68.64 261.516 68.64H262.056ZM265.009 84V62.55H273.919C275.339 62.55 276.579 62.78 277.639 63.24C278.699 63.7 279.519 64.35 280.099 65.19C280.679 66.03 280.969 67.02 280.969 68.16C280.969 69.2 280.679 70.13 280.099 70.95C279.519 71.75 278.699 72.38 277.639 72.84C276.579 73.3 275.339 73.53 273.919 73.53H269.359V72H274.189C275.729 72 277.069 72.24 278.209 72.72C279.369 73.18 280.269 73.85 280.909 74.73C281.569 75.59 281.899 76.62 281.899 77.82C281.899 79.04 281.579 80.12 280.939 81.06C280.299 82 279.399 82.73 278.239 83.25C277.079 83.75 275.729 84 274.189 84H265.009ZM269.059 80.61H274.219C275.319 80.61 276.189 80.35 276.829 79.83C277.469 79.29 277.789 78.54 277.789 77.58C277.789 76.66 277.469 75.95 276.829 75.45C276.189 74.93 275.319 74.67 274.219 74.67H268.759V71.34H273.709C274.689 71.34 275.459 71.1 276.019 70.62C276.599 70.12 276.889 69.44 276.889 68.58C276.889 67.74 276.599 67.09 276.019 66.63C275.459 66.17 274.689 65.94 273.709 65.94H269.059V80.61ZM294.253 68.64V72.24H293.443C292.503 72.24 291.693 72.43 291.013 72.81C290.333 73.17 289.793 73.74 289.393 74.52C289.013 75.3 288.823 76.31 288.823 77.55V84H284.863V68.91H288.793V73.8H288.313C288.493 72.46 288.863 71.42 289.423 70.68C290.003 69.94 290.673 69.42 291.433 69.12C292.213 68.8 292.973 68.64 293.713 68.64H294.253ZM304.03 84.48C302.39 84.48 300.94 84.14 299.68 83.46C298.42 82.76 297.44 81.81 296.74 80.61C296.04 79.39 295.69 78.01 295.69 76.47C295.69 74.89 296.04 73.5 296.74 72.3C297.44 71.1 298.42 70.16 299.68 69.48C300.94 68.78 302.39 68.43 304.03 68.43C305.67 68.43 307.12 68.78 308.38 69.48C309.64 70.16 310.62 71.1 311.32 72.3C312.02 73.5 312.37 74.88 312.37 76.44C312.37 78 312.02 79.39 311.32 80.61C310.62 81.81 309.64 82.76 308.38 83.46C307.12 84.14 305.67 84.48 304.03 84.48ZM304.03 81.18C304.87 81.18 305.61 80.98 306.25 80.58C306.89 80.18 307.39 79.63 307.75 78.93C308.11 78.21 308.29 77.39 308.29 76.47C308.29 75.53 308.11 74.71 307.75 74.01C307.39 73.29 306.89 72.73 306.25 72.33C305.61 71.93 304.87 71.73 304.03 71.73C303.19 71.73 302.45 71.93 301.81 72.33C301.17 72.73 300.67 73.29 300.31 74.01C299.95 74.71 299.77 75.53 299.77 76.47C299.77 77.39 299.95 78.21 300.31 78.93C300.67 79.63 301.17 80.18 301.81 80.58C302.45 80.98 303.19 81.18 304.03 81.18ZM332.742 84H328.812L325.002 72.48H326.082L322.332 84H318.402L313.692 68.91H317.592L321.012 81.54H320.022L323.982 68.91H327.282L331.242 81.54H330.222L333.642 68.91H337.452L332.742 84ZM338.276 81.75L340.436 79.29C341.116 79.97 341.926 80.51 342.866 80.91C343.826 81.31 344.806 81.51 345.806 81.51C346.726 81.51 347.456 81.34 347.996 81C348.556 80.66 348.836 80.24 348.836 79.74C348.836 79.22 348.586 78.84 348.086 78.6C347.606 78.34 346.706 78.12 345.386 77.94C343.186 77.62 341.576 77.11 340.556 76.41C339.536 75.69 339.026 74.7 339.026 73.44C339.026 72.44 339.306 71.57 339.866 70.83C340.426 70.07 341.206 69.48 342.206 69.06C343.206 68.64 344.336 68.43 345.596 68.43C347.096 68.43 348.416 68.67 349.556 69.15C350.716 69.63 351.706 70.26 352.526 71.04L350.366 73.5C349.746 72.86 349.026 72.35 348.206 71.97C347.406 71.59 346.546 71.4 345.626 71.4C344.766 71.4 344.076 71.56 343.556 71.88C343.056 72.2 342.806 72.6 342.806 73.08C342.806 73.5 343.056 73.82 343.556 74.04C344.056 74.26 344.936 74.45 346.196 74.61C348.356 74.93 349.976 75.46 351.056 76.2C352.136 76.94 352.676 78.01 352.676 79.41C352.676 80.43 352.376 81.33 351.776 82.11C351.176 82.87 350.346 83.46 349.286 83.88C348.246 84.28 347.026 84.48 345.626 84.48C344.126 84.48 342.746 84.23 341.486 83.73C340.226 83.23 339.156 82.57 338.276 81.75ZM368.196 79.29L370.296 81.72C369.536 82.58 368.556 83.26 367.356 83.76C366.176 84.24 364.866 84.48 363.426 84.48C361.686 84.48 360.156 84.14 358.836 83.46C357.516 82.78 356.486 81.84 355.746 80.64C355.006 79.44 354.636 78.05 354.636 76.47C354.636 74.89 354.986 73.5 355.686 72.3C356.406 71.08 357.376 70.13 358.596 69.45C359.836 68.77 361.226 68.43 362.766 68.43C364.266 68.43 365.596 68.77 366.756 69.45C367.936 70.11 368.856 71.03 369.516 72.21C370.176 73.39 370.506 74.76 370.506 76.32V76.5H366.636V76.08C366.636 75.16 366.466 74.36 366.126 73.68C365.806 73 365.356 72.47 364.776 72.09C364.216 71.71 363.546 71.52 362.766 71.52C361.946 71.52 361.226 71.72 360.606 72.12C359.986 72.5 359.496 73.06 359.136 73.8C358.796 74.52 358.626 75.38 358.626 76.38C358.626 77.44 358.836 78.35 359.256 79.11C359.696 79.85 360.286 80.42 361.026 80.82C361.786 81.2 362.656 81.39 363.636 81.39C365.436 81.39 366.956 80.69 368.196 79.29ZM370.506 77.67H357.186V75.15H370.026L370.506 76.32V77.67ZM382.876 68.64V72.24H382.066C381.126 72.24 380.316 72.43 379.636 72.81C378.956 73.17 378.416 73.74 378.016 74.52C377.636 75.3 377.446 76.31 377.446 77.55V84H373.486V68.91H377.416V73.8H376.936C377.116 72.46 377.486 71.42 378.046 70.68C378.626 69.94 379.296 69.42 380.056 69.12C380.836 68.8 381.596 68.64 382.336 68.64H382.876Z" fill="white"/>
<path d="M351.907 107H350.087L345.827 97.08H347.807L351.347 105.88H350.707L354.267 97.08H356.167L351.907 107ZM361.881 92.7H363.621V107H361.741V94.72L358.101 97.48V95.5L361.881 92.7ZM369.497 105.92C369.497 106.267 369.371 106.567 369.117 106.82C368.864 107.073 368.564 107.2 368.217 107.2C367.857 107.2 367.551 107.073 367.297 106.82C367.044 106.567 366.917 106.267 366.917 105.92C366.917 105.56 367.044 105.26 367.297 105.02C367.551 104.767 367.857 104.64 368.217 104.64C368.564 104.64 368.864 104.767 369.117 105.02C369.371 105.26 369.497 105.56 369.497 105.92ZM377.044 107.32C375.938 107.32 374.978 107.027 374.164 106.44C373.364 105.84 372.751 104.987 372.324 103.88C371.898 102.76 371.684 101.42 371.684 99.86C371.684 97.5 372.158 95.6667 373.104 94.36C374.064 93.04 375.378 92.38 377.044 92.38C378.724 92.38 380.038 93.04 380.984 94.36C381.944 95.6667 382.424 97.5 382.424 99.86C382.424 101.42 382.211 102.76 381.784 103.88C381.358 104.987 380.744 105.84 379.944 106.44C379.144 107.027 378.178 107.32 377.044 107.32ZM377.044 105.72C378.138 105.72 378.978 105.22 379.564 104.22C380.164 103.207 380.464 101.753 380.464 99.86C380.464 97.9533 380.164 96.5 379.564 95.5C378.978 94.4867 378.138 93.98 377.044 93.98C375.964 93.98 375.124 94.4867 374.524 95.5C373.924 96.5 373.624 97.9533 373.624 99.86C373.624 101.753 373.924 103.207 374.524 104.22C375.124 105.22 375.964 105.72 377.044 105.72Z" fill="white"/>
<path d="M150 56L150.287 63.6303C150.463 68.2985 154.271 72.0423 159.017 72.213L167 72.5L159.017 72.787C154.271 72.9577 150.463 76.7015 150.287 81.3697L150 89L149.713 81.3697C149.537 76.7015 145.729 72.9577 140.983 72.787L133 72.5L140.983 72.213C145.729 72.0423 149.537 68.2985 149.713 63.6303L150 56Z" fill="white"/>
<path d="M158.387 58.2106L154.757 64.96C152.537 69.0893 153.932 74.2044 157.955 76.6863L164.722 80.8615L157.663 77.1835C153.466 74.9971 148.266 76.3665 145.741 80.3227L141.613 86.7894L145.243 80.04C147.463 75.9107 146.068 70.7956 142.045 68.3136L135.278 64.1385L142.337 67.8165C146.534 70.0029 151.734 68.6335 154.259 64.6772L158.387 58.2106Z" fill="white"/>
<path d="M164.526 64.25L157.952 68.3101C153.931 70.794 152.538 75.9098 154.761 80.038L158.5 86.9825L154.256 80.325C151.733 76.3675 146.533 74.9955 142.335 77.1797L135.474 80.75L142.048 76.6899C146.069 74.206 147.462 69.0902 145.239 64.962L141.5 58.0175L145.744 64.675C148.267 68.6325 153.467 70.0045 157.665 67.8203L164.526 64.25Z" fill="white"/>
<path d="M381 42L381.567 45.6114C382.073 48.8415 384.484 51.3731 387.561 51.9051L391 52.5L387.561 53.0949C384.484 53.6269 382.073 56.1585 381.567 59.3886L381 63L380.433 59.3886C379.927 56.1585 377.516 53.6269 374.439 53.0949L371 52.5L374.439 51.9051C377.516 51.3731 379.927 48.8415 380.433 45.6114L381 42Z" fill="white"/>
<path d="M393.924 57.0795C394.124 55.7598 395.876 55.7598 396.076 57.0795L396.697 61.1615L400.465 61.8339C401.683 62.0512 401.683 63.9487 400.465 64.1661L396.697 64.8384L396.076 68.9205C395.876 70.2401 394.124 70.2401 393.924 68.9205L393.303 64.8384L389.535 64.1661C388.317 63.9487 388.317 62.0512 389.535 61.8339L393.303 61.1615L393.924 57.0795Z" fill="white"/>
<defs>
<radialGradient id="paint0_radial_5_5" cx="0" cy="0" r="1" gradientUnits="userSpaceOnUse" gradientTransform="translate(270 380) rotate(-90) scale(323.846 460.202)">
<stop stop-color="#26156B"/>
<stop offset="1"/>
</radialGradient>
</defs>
</svg>
