<svg width="68" height="66" viewBox="0 0 68 66" fill="none" xmlns="http://www.w3.org/2000/svg">
<path d="M34 0L34.575 15.2607C34.9267 24.5971 42.5423 32.0847 52.0335 32.4259L68 33L52.0335 33.5741C42.5423 33.9153 34.9267 41.4029 34.575 50.7393L34 66L33.425 50.7393C33.0733 41.4029 25.4577 33.9153 15.9665 33.5741L0 33L15.9665 32.4259C25.4577 32.0847 33.0733 24.5971 33.425 15.2607L34 0Z" fill="white"/>
<path d="M50.7733 4.42114L43.5145 17.92C39.0736 26.1786 41.8631 36.4088 49.9093 41.3727L63.4449 49.7229L49.3257 42.367C40.9326 37.9942 30.5315 40.7329 25.4813 48.6455L17.2267 61.5788L24.4855 48.0799C28.9264 39.8213 26.1369 29.5911 18.0907 24.6273L4.55514 16.277L18.6743 23.633C27.0674 28.0058 37.4685 25.267 42.5187 17.3545L50.7733 4.42114Z" fill="white"/>
<path d="M63.0523 16.5L49.9047 24.6201C41.8611 29.588 39.0769 39.8196 43.5221 48.076L51 61.965L42.5114 48.65C37.4653 40.7349 27.0657 37.9909 18.6703 42.3595L4.94773 49.5L18.0953 41.3799C26.1389 36.412 28.923 26.1804 24.4778 17.924L17 4.03496L25.4886 17.35C30.5347 25.2651 40.9343 28.0091 49.3297 23.6405L63.0523 16.5Z" fill="white"/>
</svg>
